<mxfile host="app.diagrams.net" modified="2021-04-20T11:58:21.292Z" agent="5.0 (X11; Linux x86_64) AppleWebKit/537.36 (KHTML, like Gecko) Chrome/89.0.4389.90 Safari/537.36" etag="ww6YndpZtF3QUE4yRovq" version="14.5.4" type="github">
  <diagram name="Page-1" id="aaaa8250-4180-3840-79b5-4cada1eebb92">
    <mxGraphModel dx="1131" dy="597" grid="1" gridSize="10" guides="1" tooltips="1" connect="1" arrows="1" fold="1" page="1" pageScale="1" pageWidth="850" pageHeight="1100" background="#ffffff" math="0" shadow="0">
      <root>
        <mxCell id="0" />
        <mxCell id="1" parent="0" />
        <mxCell id="wGqpbxIfOqcfoUOvlFpb-9" style="edgeStyle=orthogonalEdgeStyle;rounded=0;orthogonalLoop=1;jettySize=auto;html=1;exitX=1;exitY=0.5;exitDx=0;exitDy=0;entryX=0;entryY=0.5;entryDx=0;entryDy=0;startArrow=none;startFill=0;" edge="1" parent="1" source="wGqpbxIfOqcfoUOvlFpb-1" target="wGqpbxIfOqcfoUOvlFpb-3">
          <mxGeometry relative="1" as="geometry" />
        </mxCell>
        <mxCell id="wGqpbxIfOqcfoUOvlFpb-21" style="edgeStyle=orthogonalEdgeStyle;rounded=0;orthogonalLoop=1;jettySize=auto;html=1;exitX=0.75;exitY=1;exitDx=0;exitDy=0;startArrow=none;startFill=0;" edge="1" parent="1" source="wGqpbxIfOqcfoUOvlFpb-1">
          <mxGeometry relative="1" as="geometry">
            <mxPoint x="410" y="359.9999999999999" as="targetPoint" />
          </mxGeometry>
        </mxCell>
        <mxCell id="wGqpbxIfOqcfoUOvlFpb-1" value="inspector" style="rounded=1;whiteSpace=wrap;html=1;fillColor=#dae8fc;strokeColor=#6c8ebf;" vertex="1" parent="1">
          <mxGeometry x="320" y="200" width="120" height="40" as="geometry" />
        </mxCell>
        <mxCell id="wGqpbxIfOqcfoUOvlFpb-2" value="IPS-ALGO" style="rounded=1;whiteSpace=wrap;html=1;fillColor=#dae8fc;strokeColor=#6c8ebf;" vertex="1" parent="1">
          <mxGeometry x="310" y="280" width="80" height="40" as="geometry" />
        </mxCell>
        <mxCell id="wGqpbxIfOqcfoUOvlFpb-11" style="edgeStyle=orthogonalEdgeStyle;rounded=0;orthogonalLoop=1;jettySize=auto;html=1;exitX=0.5;exitY=1;exitDx=0;exitDy=0;entryX=0.5;entryY=0;entryDx=0;entryDy=0;startArrow=classic;startFill=1;" edge="1" parent="1" source="wGqpbxIfOqcfoUOvlFpb-3" target="wGqpbxIfOqcfoUOvlFpb-10">
          <mxGeometry relative="1" as="geometry" />
        </mxCell>
        <mxCell id="wGqpbxIfOqcfoUOvlFpb-3" value="Admin&lt;br&gt;Frontend" style="rounded=1;whiteSpace=wrap;html=1;fillColor=#d5e8d4;strokeColor=#82b366;" vertex="1" parent="1">
          <mxGeometry x="520" y="200" width="80" height="40" as="geometry" />
        </mxCell>
        <mxCell id="wGqpbxIfOqcfoUOvlFpb-7" value="" style="endArrow=classic;startArrow=classic;html=1;exitX=0.5;exitY=0;exitDx=0;exitDy=0;entryX=0.25;entryY=1;entryDx=0;entryDy=0;" edge="1" parent="1" source="wGqpbxIfOqcfoUOvlFpb-2" target="wGqpbxIfOqcfoUOvlFpb-1">
          <mxGeometry width="50" height="50" relative="1" as="geometry">
            <mxPoint x="580" y="330" as="sourcePoint" />
            <mxPoint x="630" y="280" as="targetPoint" />
          </mxGeometry>
        </mxCell>
        <mxCell id="wGqpbxIfOqcfoUOvlFpb-13" style="edgeStyle=orthogonalEdgeStyle;rounded=0;orthogonalLoop=1;jettySize=auto;html=1;entryX=0.5;entryY=0;entryDx=0;entryDy=0;entryPerimeter=0;startArrow=classic;startFill=1;" edge="1" parent="1" source="wGqpbxIfOqcfoUOvlFpb-10" target="wGqpbxIfOqcfoUOvlFpb-12">
          <mxGeometry relative="1" as="geometry" />
        </mxCell>
        <mxCell id="wGqpbxIfOqcfoUOvlFpb-10" value="Admin&lt;br&gt;Backend" style="rounded=1;whiteSpace=wrap;html=1;fillColor=#ffe6cc;strokeColor=#d79b00;" vertex="1" parent="1">
          <mxGeometry x="520" y="280" width="80" height="40" as="geometry" />
        </mxCell>
        <mxCell id="wGqpbxIfOqcfoUOvlFpb-12" value="MySQL" style="shape=cylinder3;whiteSpace=wrap;html=1;boundedLbl=1;backgroundOutline=1;size=15;fillColor=#f5f5f5;strokeColor=#666666;fontColor=#333333;" vertex="1" parent="1">
          <mxGeometry x="535" y="360" width="50" height="60" as="geometry" />
        </mxCell>
        <mxCell id="wGqpbxIfOqcfoUOvlFpb-14" value="Alignment&lt;br&gt;service" style="rounded=1;whiteSpace=wrap;html=1;fillColor=#f8cecc;strokeColor=#b85450;" vertex="1" parent="1">
          <mxGeometry x="160" y="200" width="80" height="40" as="geometry" />
        </mxCell>
        <mxCell id="wGqpbxIfOqcfoUOvlFpb-15" value="bussiness" style="rounded=1;whiteSpace=wrap;html=1;" vertex="1" parent="1">
          <mxGeometry x="160" y="100" width="440" height="40" as="geometry" />
        </mxCell>
        <mxCell id="wGqpbxIfOqcfoUOvlFpb-16" value="" style="endArrow=classic;startArrow=classic;html=1;exitX=0.5;exitY=0;exitDx=0;exitDy=0;entryX=0.25;entryY=1;entryDx=0;entryDy=0;dashed=1;" edge="1" parent="1" source="wGqpbxIfOqcfoUOvlFpb-14" target="wGqpbxIfOqcfoUOvlFpb-15">
          <mxGeometry width="50" height="50" relative="1" as="geometry">
            <mxPoint x="420" y="310" as="sourcePoint" />
            <mxPoint x="470" y="260" as="targetPoint" />
          </mxGeometry>
        </mxCell>
        <mxCell id="wGqpbxIfOqcfoUOvlFpb-17" value="" style="endArrow=classic;startArrow=classic;html=1;exitX=0.5;exitY=0;exitDx=0;exitDy=0;dashed=1;entryX=0.5;entryY=1;entryDx=0;entryDy=0;" edge="1" parent="1" source="wGqpbxIfOqcfoUOvlFpb-1" target="wGqpbxIfOqcfoUOvlFpb-15">
          <mxGeometry width="50" height="50" relative="1" as="geometry">
            <mxPoint x="210" y="210" as="sourcePoint" />
            <mxPoint x="285" y="170" as="targetPoint" />
          </mxGeometry>
        </mxCell>
        <mxCell id="wGqpbxIfOqcfoUOvlFpb-18" value="records" style="text;html=1;strokeColor=none;fillColor=none;align=center;verticalAlign=middle;whiteSpace=wrap;rounded=0;" vertex="1" parent="1">
          <mxGeometry x="460" y="200" width="40" height="20" as="geometry" />
        </mxCell>
        <mxCell id="wGqpbxIfOqcfoUOvlFpb-22" value="OSG" style="shape=cylinder3;whiteSpace=wrap;html=1;boundedLbl=1;backgroundOutline=1;size=15;fillColor=#f5f5f5;strokeColor=#666666;fontColor=#333333;" vertex="1" parent="1">
          <mxGeometry x="385" y="360" width="50" height="60" as="geometry" />
        </mxCell>
        <mxCell id="wGqpbxIfOqcfoUOvlFpb-23" value="" style="endArrow=none;dashed=1;html=1;dashPattern=1 3;strokeWidth=2;" edge="1" parent="1">
          <mxGeometry width="50" height="50" relative="1" as="geometry">
            <mxPoint x="160" y="340" as="sourcePoint" />
            <mxPoint x="640" y="340" as="targetPoint" />
          </mxGeometry>
        </mxCell>
        <mxCell id="wGqpbxIfOqcfoUOvlFpb-24" value="" style="endArrow=none;dashed=1;html=1;dashPattern=1 3;strokeWidth=2;" edge="1" parent="1">
          <mxGeometry width="50" height="50" relative="1" as="geometry">
            <mxPoint x="160" y="169.9999999999999" as="sourcePoint" />
            <mxPoint x="640" y="169.9999999999999" as="targetPoint" />
          </mxGeometry>
        </mxCell>
        <mxCell id="wGqpbxIfOqcfoUOvlFpb-26" value="" style="endArrow=classic;startArrow=classic;html=1;exitX=0.5;exitY=0;exitDx=0;exitDy=0;dashed=1;entryX=0.75;entryY=1;entryDx=0;entryDy=0;" edge="1" parent="1" source="wGqpbxIfOqcfoUOvlFpb-3" target="wGqpbxIfOqcfoUOvlFpb-15">
          <mxGeometry width="50" height="50" relative="1" as="geometry">
            <mxPoint x="390" y="210" as="sourcePoint" />
            <mxPoint x="390" y="150" as="targetPoint" />
          </mxGeometry>
        </mxCell>
        <mxCell id="wGqpbxIfOqcfoUOvlFpb-27" value="" style="rounded=1;whiteSpace=wrap;html=1;fillColor=#f8cecc;strokeColor=#b85450;" vertex="1" parent="1">
          <mxGeometry x="160" y="350" width="20" height="10" as="geometry" />
        </mxCell>
        <mxCell id="wGqpbxIfOqcfoUOvlFpb-28" value="python" style="text;html=1;strokeColor=none;fillColor=none;align=center;verticalAlign=middle;whiteSpace=wrap;rounded=0;" vertex="1" parent="1">
          <mxGeometry x="190" y="345" width="40" height="20" as="geometry" />
        </mxCell>
        <mxCell id="wGqpbxIfOqcfoUOvlFpb-29" value="" style="rounded=1;whiteSpace=wrap;html=1;fillColor=#dae8fc;strokeColor=#6c8ebf;" vertex="1" parent="1">
          <mxGeometry x="160" y="370" width="20" height="10" as="geometry" />
        </mxCell>
        <mxCell id="wGqpbxIfOqcfoUOvlFpb-30" value="go" style="text;html=1;strokeColor=none;fillColor=none;align=center;verticalAlign=middle;whiteSpace=wrap;rounded=0;" vertex="1" parent="1">
          <mxGeometry x="190" y="365" width="40" height="20" as="geometry" />
        </mxCell>
        <mxCell id="wGqpbxIfOqcfoUOvlFpb-31" value="" style="rounded=1;whiteSpace=wrap;html=1;fillColor=#d5e8d4;strokeColor=#82b366;" vertex="1" parent="1">
          <mxGeometry x="160" y="390" width="20" height="10" as="geometry" />
        </mxCell>
        <mxCell id="wGqpbxIfOqcfoUOvlFpb-32" value="vue" style="text;html=1;strokeColor=none;fillColor=none;align=center;verticalAlign=middle;whiteSpace=wrap;rounded=0;" vertex="1" parent="1">
          <mxGeometry x="190" y="385" width="40" height="20" as="geometry" />
        </mxCell>
        <mxCell id="wGqpbxIfOqcfoUOvlFpb-33" value="" style="rounded=1;whiteSpace=wrap;html=1;fillColor=#fff2cc;strokeColor=#d6b656;" vertex="1" parent="1">
          <mxGeometry x="160" y="410" width="20" height="10" as="geometry" />
        </mxCell>
        <mxCell id="wGqpbxIfOqcfoUOvlFpb-34" value="ruby" style="text;html=1;strokeColor=none;fillColor=none;align=center;verticalAlign=middle;whiteSpace=wrap;rounded=0;" vertex="1" parent="1">
          <mxGeometry x="190" y="405" width="40" height="20" as="geometry" />
        </mxCell>
      </root>
    </mxGraphModel>
  </diagram>
</mxfile>
